<svg xmlns="http://www.w3.org/2000/svg" viewBox="0 0 100 100" width="100" height="100">
  <g fill="none" stroke="#00833E" stroke-width="4.5" stroke-linecap="round" stroke-linejoin="round">
    <!-- indoor split unit body -->
    <path d="M12 33 h76 a6 6 0 0 1 6 6 v14 a6 6 0 0 1 -6 6 h-76 a6 6 0 0 1 -6 -6 v-14 a6 6 0 0 1 6 -6 z"/>
    <!-- front louver / vent line -->
    <line x1="12" y1="52" x2="88" y2="52"/>
    <!-- status LED -->
    <line x1="80" y1="44" x2="80.5" y2="44"/>
    <!-- airflow -->
    <path d="M28 66 q4 8 -2 16"/>
    <path d="M50 66 q4 8 -2 16"/>
    <path d="M72 66 q4 8 -2 16"/>
  </g>
</svg>
