<svg xmlns="http://www.w3.org/2000/svg" viewBox="0 0 100 100" width="100" height="100">
  <g fill="none" stroke="#00833E" stroke-width="6" stroke-linecap="round" stroke-linejoin="round">
    <g>
      <line x1="50" y1="50" x2="50" y2="14"/>
      <line x1="50" y1="26" x2="40" y2="16"/>
      <line x1="50" y1="26" x2="60" y2="16"/>
    </g>
    <g transform="rotate(60 50 50)">
      <line x1="50" y1="50" x2="50" y2="14"/>
      <line x1="50" y1="26" x2="40" y2="16"/>
      <line x1="50" y1="26" x2="60" y2="16"/>
    </g>
    <g transform="rotate(120 50 50)">
      <line x1="50" y1="50" x2="50" y2="14"/>
      <line x1="50" y1="26" x2="40" y2="16"/>
      <line x1="50" y1="26" x2="60" y2="16"/>
    </g>
    <g transform="rotate(180 50 50)">
      <line x1="50" y1="50" x2="50" y2="14"/>
      <line x1="50" y1="26" x2="40" y2="16"/>
      <line x1="50" y1="26" x2="60" y2="16"/>
    </g>
    <g transform="rotate(240 50 50)">
      <line x1="50" y1="50" x2="50" y2="14"/>
      <line x1="50" y1="26" x2="40" y2="16"/>
      <line x1="50" y1="26" x2="60" y2="16"/>
    </g>
    <g transform="rotate(300 50 50)">
      <line x1="50" y1="50" x2="50" y2="14"/>
      <line x1="50" y1="26" x2="40" y2="16"/>
      <line x1="50" y1="26" x2="60" y2="16"/>
    </g>
  </g>
  <circle cx="50" cy="50" r="5.5" fill="#00833E"/>
</svg>
