<svg xmlns="http://www.w3.org/2000/svg" viewBox="0 0 100 100" width="100" height="100">
  <g fill="none" stroke="#00833E" stroke-width="6.5" stroke-linecap="round" stroke-linejoin="round">
    <g>
      <line x1="50" y1="50" x2="50" y2="9"/>
      <line x1="50" y1="24" x2="38" y2="12"/>
      <line x1="50" y1="24" x2="62" y2="12"/>
    </g>
    <g transform="rotate(60 50 50)">
      <line x1="50" y1="50" x2="50" y2="9"/>
      <line x1="50" y1="24" x2="38" y2="12"/>
      <line x1="50" y1="24" x2="62" y2="12"/>
    </g>
    <g transform="rotate(120 50 50)">
      <line x1="50" y1="50" x2="50" y2="9"/>
      <line x1="50" y1="24" x2="38" y2="12"/>
      <line x1="50" y1="24" x2="62" y2="12"/>
    </g>
    <g transform="rotate(180 50 50)">
      <line x1="50" y1="50" x2="50" y2="9"/>
      <line x1="50" y1="24" x2="38" y2="12"/>
      <line x1="50" y1="24" x2="62" y2="12"/>
    </g>
    <g transform="rotate(240 50 50)">
      <line x1="50" y1="50" x2="50" y2="9"/>
      <line x1="50" y1="24" x2="38" y2="12"/>
      <line x1="50" y1="24" x2="62" y2="12"/>
    </g>
    <g transform="rotate(300 50 50)">
      <line x1="50" y1="50" x2="50" y2="9"/>
      <line x1="50" y1="24" x2="38" y2="12"/>
      <line x1="50" y1="24" x2="62" y2="12"/>
    </g>
  </g>
</svg>
